<?xml version="1.0" standalone="no"?>
<!DOCTYPE svg PUBLIC "-//W3C//DTD SVG 1.1//EN" "http://www.w3.org/Graphics/SVG/1.1/DTD/svg11.dtd" >
<svg xmlns="http://www.w3.org/2000/svg" xmlns:xlink="http://www.w3.org/1999/xlink" version="1.1">
<metadata>
Created by FontForge 20200314 at Mon Apr 15 20:43:20 2019
 By Unknown
Copyright 2015 Google LLC. All Rights Reserved.
</metadata>
<defs>
<font id="GoogleSansDisplay-Regular" horiz-adv-x="0" >
  <font-face 
    font-family="Google Sans Display"
    font-weight="400"
    font-stretch="normal"
    units-per-em="1000"
    panose-1="2 11 5 3 3 5 2 4 2 3"
    ascent="800"
    descent="-200"
    x-height="496"
    cap-height="716"
    bbox="-332 -226 1045 905"
    underline-thickness="84"
    underline-position="-160"
    unicode-range="U+0400-2116"
  />
<missing-glyph horiz-adv-x="581" 
d="M502 0h-423v716h423v-716zM441 57v602h-301v-602h301z" />
    <glyph glyph-name=".notdef" horiz-adv-x="581" 
d="M502 0h-423v716h423v-716zM441 57v602h-301v-602h301z" />
    <glyph glyph-name=".null" 
 />
    <glyph glyph-name="nonmarkingreturn" 
d="M0 0z" />
    <glyph glyph-name="uni0400" unicode="&#x400;" horiz-adv-x="550" 
d="M80 716h414v-81h-330v-237h298v-80h-298v-237h330v-81h-414v716zM180 900h93l52 -127h-75z" />
    <glyph glyph-name="uni0401" unicode="&#x401;" horiz-adv-x="550" 
d="M80 716h414v-81h-330v-237h298v-80h-298v-237h330v-81h-414v716zM167 805.5q-16 16.5 -16 37.5q0 23 16 38.5t38 15.5q23 0 38 -15.5t15 -38.5q0 -22 -15 -38t-38 -16q-22 0 -38 16.5zM331.5 805.5q-16.5 16.5 -16.5 37.5q0 23 16 38.5t38 15.5q23 0 38.5 -15.5
t15.5 -38.5q0 -22 -15.5 -38t-38.5 -16q-21 0 -37.5 16.5z" />
    <glyph glyph-name="uni0402" unicode="&#x402;" horiz-adv-x="751" 
d="M217 635h-191v81h471v-81h-195v-200l-4 -70h4q73 73 186 73q59 0 111.5 -27.5t84.5 -78.5t32 -117q0 -67 -28.5 -115t-77 -73.5t-105.5 -26.5h-25v81h25q58 0 91.5 38t33.5 96q0 40 -19.5 72.5t-55.5 51.5t-83 19q-55 0 -98 -22t-72 -61v-275h-85v635z" />
    <glyph glyph-name="uni0403" unicode="&#x403;" horiz-adv-x="504" 
d="M80 716h398v-81h-314v-635h-84v716zM294 900h93l-71 -127h-74z" />
    <glyph glyph-name="uni0404" unicode="&#x404;" horiz-adv-x="735" 
d="M694 112q-49 -59 -122 -93.5t-161 -34.5q-104 0 -188 49t-131.5 134.5t-47.5 190.5t47.5 190.5t131.5 134.5t188 49q80 0 146.5 -30t115.5 -87l-61 -59q-76 95 -201 95q-72 0 -133 -31t-100.5 -88.5t-48.5 -133.5h336v-80h-336q9 -76 48.5 -133.5t100.5 -88.5t133 -31
q132 0 222 106z" />
    <glyph glyph-name="uni0405" unicode="&#x405;" horiz-adv-x="559" 
d="M173.5 6.5q-50.5 22.5 -89 66t-55.5 105.5l81 33q17 -64 63 -105t107 -41q63 0 106 33.5t43 91.5q0 50 -36.5 82.5t-119.5 60.5l-45 16q-76 27 -124 71t-48 122q0 51 28 94.5t77.5 69.5t111.5 26t108.5 -23t74 -56t37.5 -65l-79 -34q-11 38 -46 67.5t-93 29.5
q-55 0 -94 -31t-39 -78q0 -42 33 -68.5t100 -49.5l46 -16q91 -33 142.5 -82.5t51.5 -134.5q0 -69 -35.5 -116t-89.5 -69t-112 -22q-54 0 -104.5 22.5z" />
    <glyph glyph-name="uni0406" unicode="&#x406;" horiz-adv-x="244" 
d="M80 716h84v-716h-84v716z" />
    <glyph glyph-name="uni0407" unicode="&#x407;" horiz-adv-x="244" 
d="M12 822q-15 15 -15 34q0 21 15 35t35 14q21 0 35 -14t14 -35q0 -20 -14 -34.5t-35 -14.5q-20 0 -35 15zM163 822q-15 15 -15 34q0 21 14.5 35t34.5 14q21 0 35 -14t14 -35q0 -20 -14 -34.5t-35 -14.5q-19 0 -34 15zM80 716h84v-716h-84v716z" />
    <glyph glyph-name="uni0408" unicode="&#x408;" horiz-adv-x="529" 
d="M109 27.5q-59 43.5 -83 122.5l79 33q37 -118 142 -118q59 0 94.5 41t35.5 108v502h85v-495q0 -75 -27.5 -128.5t-76 -81t-111.5 -27.5q-79 0 -138 43.5z" />
    <glyph glyph-name="uni0409" unicode="&#x409;" horiz-adv-x="1069" 
d="M26 -5v83q13 -5 33 -5q39 0 64 25q20 22 27.5 70.5t7.5 147.5v400h474v-306h183q58 0 107.5 -25t79 -71.5t29.5 -107.5t-29.5 -108t-79 -72.5t-107.5 -25.5h-267v635h-305v-355q0 -100 -15.5 -157t-47.5 -89q-42 -42 -121 -42q-18 0 -33 3zM819 81q37 0 66 17.5t44.5 46
t15.5 60.5t-15.5 61t-44 46.5t-66.5 17.5h-187v-249h187z" />
    <glyph glyph-name="uni040A" unicode="&#x40a;" horiz-adv-x="1015" 
d="M80 716h84v-306h329v306h85v-306h182q58 0 108 -25t79.5 -71.5t29.5 -107.5t-30 -108t-79.5 -72.5t-107.5 -25.5h-267v330h-329v-330h-84v716zM764 81q38 0 66.5 17.5t44 46t15.5 60.5t-15.5 61t-44 46.5t-66.5 17.5h-186v-249h186z" />
    <glyph glyph-name="uni040B" unicode="&#x40b;" horiz-adv-x="748" 
d="M217 635h-191v81h471v-81h-195v-200l-4 -70h4q68 73 177 73q58 0 106.5 -26t77 -74.5t28.5 -113.5v-224h-86v209q0 71 -37.5 110t-107.5 39q-50 0 -89.5 -21.5t-68.5 -61.5v-275h-85v635z" />
    <glyph glyph-name="uni040C" unicode="&#x40c;" horiz-adv-x="613" 
d="M80 716h84v-357h4l315 357h110v-4l-325 -362l340 -346v-4h-118l-322 337h-4v-337h-84v716zM321 900h93l-71 -127h-74z" />
    <glyph glyph-name="uni040D" unicode="&#x40d;" horiz-adv-x="699" 
d="M80 716h84v-432l-4 -138h4l351 570h105v-716h-85v459l4 138h-4l-367 -597h-88v716zM243 900h93l52 -127h-75z" />
    <glyph glyph-name="uni040E" unicode="&#x40e;" horiz-adv-x="600" 
d="M92 -3v85q34 -17 57 -17q31 0 48.5 12.5t33.5 47.5l26 55l-243 536h99l185 -437h4l185 437h99l-274 -604q-30 -65 -69.5 -96.5t-94.5 -31.5q-33 0 -56 13zM238.5 788.5q-29.5 16.5 -47.5 45t-18 62.5h69q0 -25 16 -42.5t43 -17.5q25 0 41 17.5t16 42.5h68
q0 -34 -17.5 -62.5t-46.5 -45t-61 -16.5q-33 0 -62.5 16.5z" />
    <glyph glyph-name="uni040F" unicode="&#x40f;" horiz-adv-x="673" 
d="M296 0h-216v716h84v-635h345v635h85v-716h-217v-152h-81v152z" />
    <glyph glyph-name="uni0410" unicode="&#x410;" horiz-adv-x="668" 
d="M286 716h96l272 -716h-93l-72 197h-310l-72 -197h-93zM460 277l-96 258l-28 77h-4l-28 -77l-96 -258h252z" />
    <glyph glyph-name="uni0411" unicode="&#x411;" horiz-adv-x="604" 
d="M80 716h412v-81h-328v-224h187q57 0 106.5 -25.5t79 -72.5t29.5 -107q0 -61 -29.5 -107.5t-79 -72.5t-106.5 -26h-271v716zM355 81q36 0 65 18t44.5 46.5t15.5 59.5t-15.5 60t-44 47t-65.5 18h-191v-249h191z" />
    <glyph glyph-name="uni0412" unicode="&#x412;" horiz-adv-x="604" 
d="M80 716h257q54 0 101 -25t75.5 -69t28.5 -99q0 -51 -26.5 -90.5t-71.5 -60.5v-4q54 -18 88 -62t34 -103q0 -58 -30 -104.5t-79 -72.5t-106 -26h-271v716zM337 406q36 0 63.5 17t42 43.5t14.5 54.5q0 27 -14 53.5t-40.5 43.5t-61.5 17h-177v-229h173zM356 81q36 0 64.5 18
t44 46.5t15.5 58.5t-16 58.5t-45 46t-67 17.5h-188v-245h192z" />
    <glyph glyph-name="uni0413" unicode="&#x413;" horiz-adv-x="504" 
d="M80 716h398v-81h-314v-635h-84v716z" />
    <glyph glyph-name="uni0414" unicode="&#x414;" horiz-adv-x="778" 
d="M733 -152h-81v152h-526v-152h-81v233h65q49 49 73 158.5t24 239.5v237h450v-635h76v-233zM573 81v554h-283v-168q0 -122 -21.5 -221.5t-62.5 -164.5h367z" />
    <glyph glyph-name="uni0415" unicode="&#x415;" horiz-adv-x="550" 
d="M80 716h414v-81h-330v-237h298v-80h-298v-237h330v-81h-414v716z" />
    <glyph glyph-name="uni0416" unicode="&#x416;" horiz-adv-x="892" 
d="M5 4l306 346l-295 362v4h102l282 -350h4v350h84v-350h4l282 350h102v-4l-295 -362l306 -346v-4h-109l-286 330h-4v-330h-84v330h-4l-285 -330h-110v4z" />
    <glyph glyph-name="uni0417" unicode="&#x417;" horiz-adv-x="549" 
d="M179 2.5q-47 18.5 -85 59t-54 102.5l79 32q16 -60 57.5 -95.5t94.5 -35.5q40 0 74.5 18t55 49t20.5 70q0 37 -21 67.5t-56 48t-76 17.5h-61v80h54q58 0 97 33t39 87q0 51 -38 83.5t-93 32.5q-50 0 -84 -30.5t-47 -70.5l-78 33q19 57 72.5 103t136.5 46q62 0 111.5 -25.5
t77.5 -70.5t28 -100q0 -59 -27.5 -96.5t-70.5 -58.5v-4q54 -22 88 -66.5t34 -108.5q0 -63 -31.5 -112.5t-85.5 -77.5t-119 -28q-45 0 -92 18.5z" />
    <glyph glyph-name="uni0418" unicode="&#x418;" horiz-adv-x="699" 
d="M80 716h84v-432l-4 -138h4l351 570h105v-716h-85v459l4 138h-4l-367 -597h-88v716z" />
    <glyph glyph-name="uni0419" unicode="&#x419;" horiz-adv-x="699" 
d="M80 716h84v-432l-4 -138h4l351 570h105v-716h-85v459l4 138h-4l-367 -597h-88v716zM288.5 788.5q-29.5 16.5 -47.5 45t-18 62.5h69q0 -25 16 -42.5t43 -17.5q25 0 41 17.5t16 42.5h68q0 -34 -17.5 -62.5t-46.5 -45t-61 -16.5q-33 0 -62.5 16.5z" />
    <glyph glyph-name="uni041A" unicode="&#x41a;" horiz-adv-x="613" 
d="M80 716h84v-357h4l315 357h110v-4l-325 -362l340 -346v-4h-118l-322 337h-4v-337h-84v716z" />
    <glyph glyph-name="uni041B" unicode="&#x41b;" horiz-adv-x="712" 
d="M26 -5v83q13 -5 33 -5q39 0 64 25q20 22 27.5 70.5t7.5 147.5v400h474v-716h-84v635h-305v-355q0 -100 -15.5 -157t-47.5 -89q-42 -42 -121 -42q-18 0 -33 3z" />
    <glyph glyph-name="uni041C" unicode="&#x41c;" horiz-adv-x="865" 
d="M80 716h122l229 -587h4l228 587h123v-716h-84v455l4 136h-4l-234 -591h-70l-234 591h-4l4 -136v-455h-84v716z" />
    <glyph glyph-name="uni041D" unicode="&#x41d;" horiz-adv-x="697" 
d="M80 716h84v-310h369v310h85v-716h-85v326h-369v-326h-84v716z" />
    <glyph glyph-name="uni041E" unicode="&#x41e;" horiz-adv-x="822" 
d="M224 34q-84 50 -132 136t-48 188t48 188t132 136t187 50t187 -50t132 -136t48 -188t-48 -188t-132 -136t-187 -50t-187 50zM552.5 102.5q64.5 37.5 102 104t37.5 151.5t-37.5 151.5t-102 104t-141.5 37.5t-141.5 -37.5t-102 -104t-37.5 -151.5t37.5 -151.5t102 -104
t141.5 -37.5t141.5 37.5z" />
    <glyph glyph-name="uni041F" unicode="&#x41f;" horiz-adv-x="673" 
d="M80 716h514v-716h-85v635h-345v-635h-84v716z" />
    <glyph glyph-name="uni0420" unicode="&#x420;" horiz-adv-x="574" 
d="M80 716h240q60 0 111.5 -27t82 -75.5t30.5 -109.5t-30.5 -109.5t-82 -75.5t-111.5 -27h-156v-292h-84v716zM323 373q40 0 70.5 19t47.5 49t17 63t-17 63t-47.5 49t-70.5 19h-159v-262h159z" />
    <glyph glyph-name="uni0421" unicode="&#x421;" horiz-adv-x="739" 
d="M226 33q-85 49 -133.5 135t-48.5 190t48.5 190t133.5 135t188 49q81 0 147.5 -30.5t114.5 -86.5l-60 -59q-40 49 -89.5 72t-112.5 23q-77 0 -142 -36.5t-103.5 -103t-38.5 -153.5t38.5 -153.5t103.5 -103t142 -36.5q131 0 222 107l61 -60q-49 -59 -122 -93.5t-161 -34.5
q-103 0 -188 49z" />
    <glyph glyph-name="uni0422" unicode="&#x422;" horiz-adv-x="538" 
d="M227 635h-201v81h486v-81h-200v-635h-85v635z" />
    <glyph glyph-name="uni0423" unicode="&#x423;" horiz-adv-x="600" 
d="M92 -3v85q34 -17 57 -17q31 0 48.5 12.5t33.5 47.5l26 55l-243 536h99l185 -437h4l185 437h99l-274 -604q-30 -65 -69.5 -96.5t-94.5 -31.5q-33 0 -56 13z" />
    <glyph glyph-name="uni0424" unicode="&#x424;" horiz-adv-x="812" 
d="M727.5 211.5q-40.5 -65.5 -113 -106t-166.5 -47.5v-106h-84v106q-93 7 -166 47.5t-113.5 106t-40.5 146.5t40.5 146.5t113.5 106t166 47.5v106h84v-106q94 -7 166.5 -47.5t113 -106t40.5 -146.5t-40.5 -146.5zM618.5 207.5q63.5 59.5 63.5 150.5t-63.5 150.5t-170.5 70.5
v-442q107 11 170.5 70.5zM193.5 207.5q63.5 -59.5 170.5 -70.5v442q-107 -11 -170.5 -70.5t-63.5 -150.5t63.5 -150.5z" />
    <glyph glyph-name="uni0425" unicode="&#x425;" horiz-adv-x="630" 
d="M260 370l-228 346h101l180 -279h4l180 279h102l-229 -346l242 -370h-99l-196 299h-4l-195 -299h-100z" />
    <glyph glyph-name="uni0426" unicode="&#x426;" horiz-adv-x="695" 
d="M565 0h-485v716h84v-635h321v635h85v-635h79v-249h-84v168z" />
    <glyph glyph-name="uni0427" unicode="&#x427;" horiz-adv-x="595" 
d="M452 328q-35 -33 -77.5 -50.5t-101.5 -17.5q-63 0 -114.5 25.5t-82 74t-30.5 114.5v242h87v-227q0 -71 42 -110t114 -39q51 0 93.5 23t69.5 61v292h85v-716h-85v328z" />
    <glyph glyph-name="uni0428" unicode="&#x428;" horiz-adv-x="907" 
d="M80 716h84v-635h247v635h85v-635h247v635h85v-716h-748v716z" />
    <glyph glyph-name="uni0429" unicode="&#x429;" horiz-adv-x="953" 
d="M823 0h-743v716h84v-635h247v635h85v-635h247v635h85v-635h79v-249h-84v168z" />
    <glyph glyph-name="uni042A" unicode="&#x42a;" horiz-adv-x="746" 
d="M214 635h-188v81h273v-265h172q63 0 117 -28t86.5 -79.5t32.5 -117.5q0 -67 -32.5 -118.5t-86.5 -79.5t-117 -28h-257v635zM477 81q43 0 76 20.5t50.5 54t17.5 69.5t-17.5 69.5t-50.5 54.5t-76 21h-178v-289h178z" />
    <glyph glyph-name="uni042B" unicode="&#x42b;" horiz-adv-x="819" 
d="M80 716h84v-265h172q63 0 117.5 -28t87 -79.5t32.5 -117.5q0 -67 -32.5 -118.5t-87 -79.5t-117.5 -28h-256v716zM655 716h84v-716h-84v716zM342 81q43 0 76 20.5t51 54t18 69.5t-18 69.5t-51 54.5t-76 21h-178v-289h178z" />
    <glyph glyph-name="uni042C" unicode="&#x42c;" horiz-adv-x="611" 
d="M80 716h84v-265h172q63 0 117.5 -28t87 -79.5t32.5 -117.5q0 -67 -32.5 -118.5t-87 -79.5t-117.5 -28h-256v716zM342 81q43 0 76 20.5t51 54t18 69.5t-18 69.5t-51 54.5t-76 21h-178v-289h178z" />
    <glyph glyph-name="uni042D" unicode="&#x42d;" horiz-adv-x="735" 
d="M512 683q84 -49 131.5 -134.5t47.5 -190.5t-47.5 -190.5t-131.5 -134.5t-188 -49q-87 0 -160.5 34.5t-122.5 93.5l61 59q90 -106 222 -106q72 0 133 31t100.5 88.5t48.5 133.5h-336v80h336q-9 76 -48.5 133.5t-100.5 88.5t-133 31q-125 0 -201 -95l-61 59q49 57 115.5 87
t146.5 30q104 0 188 -49z" />
    <glyph glyph-name="uni042E" unicode="&#x42e;" horiz-adv-x="1083" 
d="M859 682q84 -50 132 -136t48 -188q0 -103 -48 -188.5t-132 -135.5t-187 -50q-98 0 -179 45t-130.5 123t-56.5 174h-142v-326h-84v716h84v-310h144q11 92 61 166t129 117t174 43q103 0 187 -50zM813 102.5q64 37.5 102 104.5t38 151t-38 151t-102 104.5t-141 37.5
t-141.5 -37.5t-102 -104t-37.5 -151.5t37.5 -151.5t102 -104t141.5 -37.5t141 37.5z" />
    <glyph glyph-name="uni042F" unicode="&#x42f;" horiz-adv-x="586" 
d="M15 4l201 293l-2 3q-48 10 -87 39t-62 72t-23 93q0 61 30.5 109.5t81.5 75.5t110 27h243v-716h-85v292h-113l-195 -292h-99v4zM422 371v264h-159q-40 0 -70.5 -19t-47 -49t-16.5 -63q0 -38 19.5 -68.5t51.5 -47.5t70 -17h152z" />
    <glyph glyph-name="uni0430" unicode="&#x430;" horiz-adv-x="522" 
d="M125.5 5.5q-43.5 21.5 -68 60t-24.5 86.5q0 79 59.5 123t152.5 44q46 0 83 -10t59 -22v26q0 36 -18.5 64.5t-49.5 44t-67 15.5q-85 0 -130 -69l-71 47q32 46 82.5 71.5t114.5 25.5q102 0 161 -55t59 -148v-309h-81v73h-4q-24 -38 -65 -63.5t-95 -25.5t-97.5 21.5zM306 80
q36 21 58.5 57t22.5 78q-56 36 -129 36q-63 0 -100.5 -28.5t-37.5 -72.5q0 -40 33 -65.5t77 -25.5q40 0 76 21z" />
    <glyph glyph-name="uni0431" unicode="&#x431;" horiz-adv-x="604" 
d="M187.5 19q-57.5 35 -91.5 106.5t-34 176.5q0 127 24 201t67 117q80 78 203 78q38 0 57.5 3.5t27.5 10.5t13 21h84q-14 -65 -54.5 -88.5t-122.5 -23.5q-57 0 -90.5 -14t-57.5 -39q-53 -53 -63 -150h4q25 41 71.5 67.5t107.5 26.5q64 0 118.5 -34.5t86.5 -95t32 -134.5
q0 -76 -32.5 -136t-90.5 -94t-130 -34t-129.5 35zM401 83.5q39 22.5 62 65t23 99.5q0 56 -23.5 98.5t-62 65.5t-83.5 23q-44 0 -82.5 -22.5t-61.5 -65t-23 -99.5q0 -53 23 -96t61.5 -67t82.5 -24q45 0 84 22.5z" />
    <glyph glyph-name="uni0432" unicode="&#x432;" horiz-adv-x="502" 
d="M62 496h244q40 0 74 -18t54.5 -49t20.5 -69q0 -36 -17.5 -62.5t-47.5 -40.5v-5q38 -14 60.5 -42t22.5 -66q0 -41 -21.5 -74t-56.5 -51.5t-76 -18.5h-257v496zM301 287q28 0 48.5 19t20.5 47q0 29 -20.5 47.5t-49.5 18.5h-153v-132h154zM312 77q30 0 52.5 20t22.5 51
q0 29 -22.5 49.5t-52.5 20.5h-165v-141h165z" />
    <glyph glyph-name="uni0433" unicode="&#x433;" horiz-adv-x="421" 
d="M62 496h332v-77h-247v-419h-85v496z" />
    <glyph glyph-name="uni0434" unicode="&#x434;" horiz-adv-x="643" 
d="M32 77h54q23 23 39.5 91.5t16.5 144.5v183h393v-419h76v-229h-81v152h-417v-152h-81v229zM451 77v342h-227v-113q0 -65 -13 -125t-37 -104h277z" />
    <glyph glyph-name="uni0435" unicode="&#x435;" horiz-adv-x="550" 
d="M154.5 18q-56.5 34 -88.5 94t-32 136q0 72 30 132.5t85.5 96t127.5 35.5t126.5 -32.5t83.5 -91.5t29 -136q0 -14 -2 -20h-394q2 -56 27 -94.5t62.5 -57.5t77.5 -19q94 0 145 92l75 -36q-32 -60 -88.5 -96.5t-135.5 -36.5q-72 0 -128.5 34zM426 303q-2 30 -17 60t-48.5 51
t-84.5 21q-57 0 -98 -36t-52 -96h300z" />
    <glyph glyph-name="uni0436" unicode="&#x436;" horiz-adv-x="724" 
d="M2 4l224 259l-213 229v4h106l197 -219h4v219h84v-219h4l196 219h107v-4l-215 -229l225 -259v-4h-105l-208 245h-4v-245h-84v245h-4l-208 -245h-106v4z" />
    <glyph glyph-name="uni0437" unicode="&#x437;" horiz-adv-x="493" 
d="M136 7q-52 23 -90 65l57 56q35 -34 67.5 -50.5t72.5 -16.5q56 0 88.5 22.5t32.5 56.5q0 32 -25.5 55t-70.5 23h-82v69h78q35 0 59.5 20.5t24.5 54.5q0 29 -28.5 51t-74.5 22q-37 0 -66 -12.5t-60 -43.5l-57 54q39 41 84 60t99 19q50 0 93 -18.5t69 -52t26 -75.5
q0 -78 -70 -108v-4q40 -16 64 -47t24 -71q0 -69 -57 -110.5t-151 -41.5q-55 0 -107 23z" />
    <glyph glyph-name="uni0438" unicode="&#x438;" horiz-adv-x="559" 
d="M62 496h85v-273l-4 -96h4l266 369h84v-496h-84v273l4 96h-4l-266 -369h-85v496z" />
    <glyph glyph-name="uni0439" unicode="&#x439;" horiz-adv-x="559" 
d="M62 496h85v-273l-4 -96h4l266 369h84v-496h-84v273l4 96h-4l-266 -369h-85v496zM218.5 610.5q-29.5 16.5 -47.5 45t-18 62.5h69q0 -24 16 -42t43 -18q25 0 41 18t16 42h68q0 -34 -17.5 -62.5t-46.5 -45t-61 -16.5q-33 0 -62.5 16.5z" />
    <glyph glyph-name="uni043A" unicode="&#x43a;" horiz-adv-x="480" 
d="M62 496h85v-224h4l209 224h108v-4l-224 -231l234 -257v-4h-105l-222 250h-4v-250h-85v496z" />
    <glyph glyph-name="uni043B" unicode="&#x43b;" horiz-adv-x="612" 
d="M48 0v76q16 -5 33 -5q23 0 35 15.5t17 51t5 99.5v259h412v-496h-85v419h-244v-206q0 -120 -35.5 -170.5t-92.5 -50.5q-26 0 -45 8z" />
    <glyph glyph-name="uni043C" unicode="&#x43c;" horiz-adv-x="675" 
d="M60 496h102l173 -329h3l174 329h103v-496h-85v271l4 96h-4l-162 -303h-61l-162 303h-4l4 -96v-271h-85v496z" />
    <glyph glyph-name="uni043D" unicode="&#x43d;" horiz-adv-x="560" 
d="M62 496h85v-207h266v207h85v-496h-85v210h-266v-210h-85v496z" />
    <glyph glyph-name="uni043E" unicode="&#x43e;" horiz-adv-x="577" 
d="M157 18.5q-58 34.5 -90.5 95t-32.5 134.5t32.5 134.5t90.5 95t131 34.5t131.5 -34.5t91 -95t32.5 -134.5t-32.5 -134.5t-91 -95t-131.5 -34.5t-131 34.5zM372 84q39 23 62.5 65.5t23.5 98.5t-23.5 98.5t-62.5 65.5t-84 23q-44 0 -83 -23t-62.5 -65.5t-23.5 -98.5
t23.5 -98.5t62.5 -65.5t83 -23q45 0 84 23z" />
    <glyph glyph-name="uni043F" unicode="&#x43f;" horiz-adv-x="541" 
d="M62 496h417v-496h-85v419h-247v-419h-85v496z" />
    <glyph glyph-name="uni0440" unicode="&#x440;" horiz-adv-x="586" 
d="M58 496h81v-73h4q24 38 69 63.5t104 25.5q64 0 118 -34.5t86 -94.5t32 -135t-32 -135t-86 -94.5t-118 -34.5q-59 0 -104.5 25.5t-68.5 64.5h-4l4 -69v-221h-85v712zM384.5 84q37.5 23 60 65.5t22.5 98.5t-22.5 98.5t-60 65.5t-81.5 23t-81.5 -22.5t-60 -65t-22.5 -99.5
q0 -56 22.5 -99t60 -65.5t81.5 -22.5t81.5 23z" />
    <glyph glyph-name="uni0441" unicode="&#x441;" horiz-adv-x="534" 
d="M157 18.5q-58 34.5 -90.5 95t-32.5 134.5q0 75 32.5 135t90.5 94.5t130 34.5q81 0 136 -39t80 -101l-77 -33q-19 47 -55.5 71.5t-88.5 24.5q-42 0 -79.5 -23.5t-60.5 -66t-23 -97.5q0 -54 23 -97t60.5 -66.5t79.5 -23.5q53 0 91 25t57 71l75 -32q-25 -62 -81 -101.5
t-137 -39.5q-72 0 -130 34.5z" />
    <glyph glyph-name="uni0442" unicode="&#x442;" horiz-adv-x="460" 
d="M188 419h-161v77h406v-77h-161v-419h-84v419z" />
    <glyph glyph-name="uni0443" unicode="&#x443;" horiz-adv-x="503" 
d="M213 32l-206 464h92l154 -365h2l149 365h92l-310 -712h-87z" />
    <glyph glyph-name="uni0444" unicode="&#x444;" horiz-adv-x="757" 
d="M676 114q-37 -57 -103 -89.5t-152 -38.5v-202h-85v202q-132 10 -212 78.5t-80 183.5q0 114 80 183t212 79v206h85v-206q131 -10 211.5 -79t80.5 -183q0 -77 -37 -134zM576 120.5q56 47.5 56 127.5q0 79 -56 127t-155 56v-366q99 8 155 55.5zM181 120.5
q56 -47.5 155 -55.5v366q-99 -8 -155 -56t-56 -127q0 -80 56 -127.5z" />
    <glyph glyph-name="uni0445" unicode="&#x445;" horiz-adv-x="476" 
d="M188 252l-172 244h96l127 -181l122 181h99l-173 -244l178 -252h-100l-128 190l-126 -190h-99z" />
    <glyph glyph-name="uni0446" unicode="&#x446;" horiz-adv-x="586" 
d="M473 0h-411v496h85v-419h247v419h85v-419h76v-229h-82v152z" />
    <glyph glyph-name="uni0447" unicode="&#x447;" horiz-adv-x="511" 
d="M364 192q-45 -34 -136 -34q-56 0 -99.5 24t-67.5 66t-24 94v154h87v-153q0 -50 32 -79t85 -29q40 0 72 10.5t51 29.5v221h84v-496h-84v192z" />
    <glyph glyph-name="uni0448" unicode="&#x448;" horiz-adv-x="772" 
d="M62 496h85v-419h187v419h84v-419h187v419h85v-496h-628v496z" />
    <glyph glyph-name="uni0449" unicode="&#x449;" horiz-adv-x="820" 
d="M684 0h-622v496h85v-419h187v419h84v-419h187v419h85v-419h75v-229h-81v152z" />
    <glyph glyph-name="uni044A" unicode="&#x44a;" horiz-adv-x="585" 
d="M141 419h-114v77h199v-171h159q46 0 86 -21t63.5 -58t23.5 -83q0 -47 -23.5 -84t-63.5 -58t-86 -21h-244v419zM383 77q36 0 62.5 24.5t26.5 61.5q0 36 -27 60.5t-62 24.5h-157v-171h157z" />
    <glyph glyph-name="uni044B" unicode="&#x44b;" horiz-adv-x="704" 
d="M62 496h85v-171h159q46 0 86 -21t63.5 -58t23.5 -83q0 -47 -23.5 -84t-63.5 -58t-86 -21h-244v496zM557 496h84v-496h-84v496zM304 77q36 0 62.5 24.5t26.5 61.5q0 36 -27 60.5t-62 24.5h-157v-171h157z" />
    <glyph glyph-name="uni044C" unicode="&#x44c;" horiz-adv-x="506" 
d="M62 496h85v-171h159q46 0 86 -21t63.5 -58t23.5 -83q0 -47 -23.5 -84t-63.5 -58t-86 -21h-244v496zM304 77q36 0 62.5 24.5t26.5 61.5q0 36 -27 60.5t-62 24.5h-157v-171h157z" />
    <glyph glyph-name="uni044D" unicode="&#x44d;" horiz-adv-x="529" 
d="M109 23.5q-55 39.5 -81 101.5l75 32q42 -96 148 -96q59 0 105.5 41.5t56.5 110.5h-221v69h221q-10 70 -56.5 111.5t-105.5 41.5q-104 0 -143 -96l-77 33q25 62 79 101t135 39q73 0 130 -34.5t88.5 -94.5t31.5 -135q0 -74 -31.5 -134.5t-88.5 -95t-130 -34.5
q-81 0 -136 39.5z" />
    <glyph glyph-name="uni044E" unicode="&#x44e;" horiz-adv-x="781" 
d="M372.5 12.5q-54.5 28.5 -89 79.5t-42.5 116h-90v-208h-85v496h85v-209h90q8 65 42.5 116t89 80t120.5 29q73 0 131 -34.5t90.5 -95t32.5 -134.5t-32.5 -134.5t-90.5 -95t-131 -34.5q-66 0 -120.5 28.5zM577 84q39 23 62.5 65.5t23.5 98.5t-23.5 98.5t-62.5 65.5t-84 23
t-84 -23t-62.5 -65.5t-23.5 -98.5t23.5 -98.5t62.5 -65.5t84 -23t84 23z" />
    <glyph glyph-name="uni044F" unicode="&#x44f;" horiz-adv-x="490" 
d="M3 5l143 178l-2 2q-54 14 -87.5 53.5t-33.5 94.5q0 46 24 83.5t63.5 58.5t85.5 21h232v-496h-85v178h-107l-136 -178h-97v5zM343 251v168h-144q-36 0 -62.5 -23.5t-26.5 -60.5t26 -60.5t63 -23.5h144z" />
    <glyph glyph-name="uni0450" unicode="&#x450;" horiz-adv-x="550" 
d="M154.5 18q-56.5 34 -88.5 94t-32 136q0 72 30 132.5t85.5 96t127.5 35.5t126.5 -32.5t83.5 -91.5t29 -136q0 -14 -2 -20h-394q2 -56 27 -94.5t62.5 -57.5t77.5 -19q94 0 145 92l75 -36q-32 -60 -88.5 -96.5t-135.5 -36.5q-72 0 -128.5 34zM426 303q-2 30 -17 60t-48.5 51
t-84.5 21q-57 0 -98 -36t-52 -96h300zM172 722h93l52 -127h-75z" />
    <glyph glyph-name="uni0451" unicode="&#x451;" horiz-adv-x="550" 
d="M154.5 18q-56.5 34 -88.5 94t-32 136q0 72 30 132.5t85.5 96t127.5 35.5t126.5 -32.5t83.5 -91.5t29 -136q0 -14 -2 -20h-394q2 -56 27 -94.5t62.5 -57.5t77.5 -19q94 0 145 92l75 -36q-32 -60 -88.5 -96.5t-135.5 -36.5q-72 0 -128.5 34zM426 303q-2 30 -17 60t-48.5 51
t-84.5 21q-57 0 -98 -36t-52 -96h300zM159 627.5q-16 16.5 -16 37.5q0 23 16 38.5t38 15.5q23 0 38 -15.5t15 -38.5q0 -22 -15 -38t-38 -16q-22 0 -38 16.5zM323.5 627.5q-16.5 16.5 -16.5 37.5q0 23 16 38.5t38 15.5q23 0 38.5 -15.5t15.5 -38.5q0 -22 -15.5 -38t-38.5 -16
q-21 0 -37.5 16.5z" />
    <glyph glyph-name="uni0452" unicode="&#x452;" horiz-adv-x="555" 
d="M312 -220v81q22 -10 41 -10q31 0 45 19.5t14 57.5v373q0 69 -33.5 101.5t-89.5 32.5q-40 0 -72.5 -23.5t-51 -62t-18.5 -79.5v-270h-85v577h-64v67h64v72h85v-72h150v-67h-150v-85l-4 -71h4q21 39 65.5 65t96.5 26q94 0 140.5 -53.5t46.5 -144.5v-386q0 -77 -37 -115.5
t-103 -38.5q-26 0 -44 6z" />
    <glyph glyph-name="uni0453" unicode="&#x453;" horiz-adv-x="421" 
d="M62 496h332v-77h-247v-419h-85v496zM243 722h93l-71 -127h-74z" />
    <glyph glyph-name="uni0454" unicode="&#x454;" horiz-adv-x="531" 
d="M156 18.5q-57 34.5 -89 95t-32 134.5q0 75 32 135t89 94.5t129 34.5q81 0 135.5 -39t78.5 -101l-76 -33q-20 48 -55 72t-89 24q-59 0 -105.5 -41.5t-56.5 -111.5h222v-69h-222q10 -69 56.5 -110.5t105.5 -41.5q54 0 91.5 25t56.5 71l75 -32q-25 -62 -80.5 -101.5
t-136.5 -39.5q-72 0 -129 34.5z" />
    <glyph glyph-name="uni0455" unicode="&#x455;" horiz-adv-x="463" 
d="M103 24q-55 40 -77 99l76 33q19 -47 55.5 -72t79.5 -25q48 0 79.5 21t31.5 51q0 29 -23.5 48t-80.5 33l-68 17q-56 13 -95.5 47t-39.5 90q0 46 26.5 79t70.5 50t96 17q64 0 116.5 -29.5t74.5 -83.5l-75 -32q-16 36 -48.5 53t-72.5 17q-39 0 -70.5 -19t-31.5 -49
q0 -26 20.5 -41t65.5 -27l74 -18q74 -19 110.5 -56.5t36.5 -89.5q0 -43 -25 -78t-70 -55t-102 -20q-79 0 -134 40z" />
    <glyph glyph-name="uni0456" unicode="&#x456;" horiz-adv-x="224" 
d="M69 618q-18 18 -18 43t18 43t43 18t43 -18t18 -43t-17.5 -43t-43.5 -18q-25 0 -43 18zM70 496h85v-496h-85v496z" />
    <glyph glyph-name="uni0457" unicode="&#x457;" horiz-adv-x="224" 
d="M8 627.5q-16 16.5 -16 37.5q0 23 16 38.5t38 15.5q23 0 38 -15.5t15 -38.5q0 -22 -15 -38t-38 -16q-22 0 -38 16.5zM141 627.5q-16 16.5 -16 37.5q0 23 16 38.5t38 15.5q23 0 38 -15.5t15 -38.5q0 -22 -15 -38t-38 -16q-22 0 -38 16.5zM70 496h85v-496h-85v496z" />
    <glyph glyph-name="uni0458" unicode="&#x458;" horiz-adv-x="224" 
d="M69 618q-18 18 -18 43t18 43t43 18t43 -18t18 -43t-17.5 -43t-43.5 -18q-25 0 -43 18zM-30 -220v81q22 -10 41 -10q31 0 45 19.5t14 57.5v568h84v-568q0 -77 -37 -115.5t-103 -38.5q-24 0 -44 6z" />
    <glyph glyph-name="uni0459" unicode="&#x459;" horiz-adv-x="902" 
d="M49 0v76q15 -5 32 -5q23 0 35 15.5t17 51t5 99.5v259h412v-181h157q44 0 82 -20t61 -56t23 -81t-23 -81t-61 -56.5t-82 -20.5h-242v419h-244v-206q0 -120 -35.5 -170.5t-92.5 -50.5q-27 0 -44 8zM703 77q34 0 59 23t25 58q0 34 -25 57t-59 23h-153v-161h153z" />
    <glyph glyph-name="uni045A" unicode="&#x45a;" horiz-adv-x="827" 
d="M62 496h85v-181h241v181h85v-181h158q44 0 82.5 -20t61.5 -56t23 -81t-23 -81t-61.5 -56.5t-82.5 -20.5h-243v238h-241v-238h-85v496zM627 77q35 0 60 23t25 58q0 34 -25 57t-60 23h-154v-161h154z" />
    <glyph glyph-name="uni045B" unicode="&#x45b;" horiz-adv-x="555" 
d="M449.5 458.5q46.5 -53.5 46.5 -144.5v-314h-84v301q0 69 -33.5 101.5t-89.5 32.5q-40 0 -72.5 -23.5t-51 -62t-18.5 -79.5v-270h-85v577h-64v67h64v72h85v-72h150v-67h-150v-85l-4 -71h4q21 39 65.5 65t96.5 26q94 0 140.5 -53.5z" />
    <glyph glyph-name="uni045C" unicode="&#x45c;" horiz-adv-x="480" 
d="M62 496h85v-224h4l209 224h108v-4l-224 -231l234 -257v-4h-105l-222 250h-4v-250h-85v496zM255 722h93l-71 -127h-74z" />
    <glyph glyph-name="uni045D" unicode="&#x45d;" horiz-adv-x="559" 
d="M62 496h85v-273l-4 -96h4l266 369h84v-496h-84v273l4 96h-4l-266 -369h-85v496zM173 722h93l52 -127h-75z" />
    <glyph glyph-name="uni045E" unicode="&#x45e;" horiz-adv-x="503" 
d="M213 32l-206 464h92l154 -365h2l149 365h92l-310 -712h-87zM190.5 610.5q-29.5 16.5 -47.5 45t-18 62.5h69q0 -24 16 -42t43 -18q25 0 41 18t16 42h68q0 -34 -17.5 -62.5t-46.5 -45t-61 -16.5q-33 0 -62.5 16.5z" />
    <glyph glyph-name="uni045F" unicode="&#x45f;" horiz-adv-x="561" 
d="M240 0h-178v496h85v-419h267v419h85v-496h-178v-152h-81v152z" />
    <glyph glyph-name="uni0490" unicode="&#x490;" horiz-adv-x="508" 
d="M73 716h329v110h81v-191h-326v-635h-84v716z" />
    <glyph glyph-name="uni0491" unicode="&#x491;" horiz-adv-x="417" 
d="M62 496h249v97h82v-174h-246v-419h-85v496z" />
    <glyph glyph-name="uni04B0" unicode="&#x4b0;" horiz-adv-x="594" 
d="M256 279h-177v66h168l-233 371h99l184 -300h4l180 300h99l-230 -371h168v-66h-177v-279h-85v279z" />
    <glyph glyph-name="uni04B1" unicode="&#x4b1;" horiz-adv-x="502" 
d="M208 0h-147v65h121l-14 32l-162 399h92l153 -403l155 403h90l-164 -398l-15 -33h122v-65h-147v-216h-84v216z" />
    <glyph glyph-name="uni2116" unicode="&#x2116;" horiz-adv-x="1077" 
d="M789 413.5q-39 23.5 -62 63t-23 84.5t23 84.5t62 63t85 23.5t85.5 -23.5t62.5 -63t23 -84.5t-23 -84.5t-62.5 -63t-85.5 -23.5t-85 23.5zM73 716h104l360 -570h4l-4 138v432h84v-716h-88l-375 597h-4l4 -138v-459h-85v716zM947 483.5q29 31.5 29 77.5q0 47 -29 78t-73 31
q-42 0 -71.5 -31t-29.5 -78q0 -46 29.5 -77.5t71.5 -31.5q44 0 73 31.5zM734 305h280v-67h-280v67z" />
    <glyph glyph-name="NULL" 
d="M0 0z" />
    <glyph glyph-name="space" horiz-adv-x="232" 
d="M0 0z" />
    <glyph glyph-name="A" horiz-adv-x="668" 
d="M286 716h96l272 -716h-93l-72 197h-310l-72 -197h-93zM460 277l-96 258l-28 77h-4l-28 -77l-96 -258h252z" />
    <glyph glyph-name="B" horiz-adv-x="604" 
d="M80 716h257q54 0 101 -25t75.5 -69t28.5 -99q0 -51 -26.5 -90.5t-71.5 -60.5v-4q54 -18 88 -62t34 -103q0 -58 -30 -104.5t-79 -72.5t-106 -26h-271v716zM337 406q36 0 63.5 17t42 43.5t14.5 54.5q0 27 -14 53.5t-40.5 43.5t-61.5 17h-177v-229h173zM356 81q36 0 64.5 18
t44 46.5t15.5 58.5t-16 58.5t-45 46t-67 17.5h-188v-245h192z" />
    <glyph glyph-name="C" horiz-adv-x="739" 
d="M226 33q-85 49 -133.5 135t-48.5 190t48.5 190t133.5 135t188 49q81 0 147.5 -30.5t114.5 -86.5l-60 -59q-40 49 -89.5 72t-112.5 23q-77 0 -142 -36.5t-103.5 -103t-38.5 -153.5t38.5 -153.5t103.5 -103t142 -36.5q131 0 222 107l61 -60q-49 -59 -122 -93.5t-161 -34.5
q-103 0 -188 49z" />
    <glyph glyph-name="E" horiz-adv-x="550" 
d="M80 716h414v-81h-330v-237h298v-80h-298v-237h330v-81h-414v716z" />
    <glyph glyph-name="H" horiz-adv-x="697" 
d="M80 716h84v-310h369v310h85v-716h-85v326h-369v-326h-84v716z" />
    <glyph glyph-name="I" horiz-adv-x="244" 
d="M80 716h84v-716h-84v716z" />
    <glyph glyph-name="J" horiz-adv-x="529" 
d="M109 27.5q-59 43.5 -83 122.5l79 33q37 -118 142 -118q59 0 94.5 41t35.5 108v502h85v-495q0 -75 -27.5 -128.5t-76 -81t-111.5 -27.5q-79 0 -138 43.5z" />
    <glyph glyph-name="M" horiz-adv-x="865" 
d="M80 716h122l229 -587h4l228 587h123v-716h-84v455l4 136h-4l-234 -591h-70l-234 591h-4l4 -136v-455h-84v716z" />
    <glyph glyph-name="O" horiz-adv-x="822" 
d="M224 34q-84 50 -132 136t-48 188t48 188t132 136t187 50t187 -50t132 -136t48 -188t-48 -188t-132 -136t-187 -50t-187 50zM552.5 102.5q64.5 37.5 102 104t37.5 151.5t-37.5 151.5t-102 104t-141.5 37.5t-141.5 -37.5t-102 -104t-37.5 -151.5t37.5 -151.5t102 -104
t141.5 -37.5t141.5 37.5z" />
    <glyph glyph-name="P" horiz-adv-x="574" 
d="M80 716h240q60 0 111.5 -27t82 -75.5t30.5 -109.5t-30.5 -109.5t-82 -75.5t-111.5 -27h-156v-292h-84v716zM323 373q40 0 70.5 19t47.5 49t17 63t-17 63t-47.5 49t-70.5 19h-159v-262h159z" />
    <glyph glyph-name="S" horiz-adv-x="559" 
d="M173.5 6.5q-50.5 22.5 -89 66t-55.5 105.5l81 33q17 -64 63 -105t107 -41q63 0 106 33.5t43 91.5q0 50 -36.5 82.5t-119.5 60.5l-45 16q-76 27 -124 71t-48 122q0 51 28 94.5t77.5 69.5t111.5 26t108.5 -23t74 -56t37.5 -65l-79 -34q-11 38 -46 67.5t-93 29.5
q-55 0 -94 -31t-39 -78q0 -42 33 -68.5t100 -49.5l46 -16q91 -33 142.5 -82.5t51.5 -134.5q0 -69 -35.5 -116t-89.5 -69t-112 -22q-54 0 -104.5 22.5z" />
    <glyph glyph-name="T" horiz-adv-x="538" 
d="M227 635h-201v81h486v-81h-200v-635h-85v635z" />
    <glyph glyph-name="X" horiz-adv-x="630" 
d="M260 370l-228 346h101l180 -279h4l180 279h102l-229 -346l242 -370h-99l-196 299h-4l-195 -299h-100z" />
    <glyph glyph-name="K.alt" horiz-adv-x="613" 
d="M80 716h84v-357h4l315 357h110v-4l-325 -362l340 -346v-4h-118l-322 337h-4v-337h-84v716z" />
    <glyph glyph-name="a" horiz-adv-x="522" 
d="M125.5 5.5q-43.5 21.5 -68 60t-24.5 86.5q0 79 59.5 123t152.5 44q46 0 83 -10t59 -22v26q0 36 -18.5 64.5t-49.5 44t-67 15.5q-85 0 -130 -69l-71 47q32 46 82.5 71.5t114.5 25.5q102 0 161 -55t59 -148v-309h-81v73h-4q-24 -38 -65 -63.5t-95 -25.5t-97.5 21.5zM306 80
q36 21 58.5 57t22.5 78q-56 36 -129 36q-63 0 -100.5 -28.5t-37.5 -72.5q0 -40 33 -65.5t77 -25.5q40 0 76 21z" />
    <glyph glyph-name="c" horiz-adv-x="534" 
d="M157 18.5q-58 34.5 -90.5 95t-32.5 134.5q0 75 32.5 135t90.5 94.5t130 34.5q81 0 136 -39t80 -101l-77 -33q-19 47 -55.5 71.5t-88.5 24.5q-42 0 -79.5 -23.5t-60.5 -66t-23 -97.5q0 -54 23 -97t60.5 -66.5t79.5 -23.5q53 0 91 25t57 71l75 -32q-25 -62 -81 -101.5
t-137 -39.5q-72 0 -130 34.5z" />
    <glyph glyph-name="e" horiz-adv-x="550" 
d="M154.5 18q-56.5 34 -88.5 94t-32 136q0 72 30 132.5t85.5 96t127.5 35.5t126.5 -32.5t83.5 -91.5t29 -136q0 -14 -2 -20h-394q2 -56 27 -94.5t62.5 -57.5t77.5 -19q94 0 145 92l75 -36q-32 -60 -88.5 -96.5t-135.5 -36.5q-72 0 -128.5 34zM426 303q-2 30 -17 60t-48.5 51
t-84.5 21q-57 0 -98 -36t-52 -96h300z" />
    <glyph glyph-name="edieresis" horiz-adv-x="550" 
d="M154.5 18q-56.5 34 -88.5 94t-32 136q0 72 30 132.5t85.5 96t127.5 35.5t126.5 -32.5t83.5 -91.5t29 -136q0 -14 -2 -20h-394q2 -56 27 -94.5t62.5 -57.5t77.5 -19q94 0 145 92l75 -36q-32 -60 -88.5 -96.5t-135.5 -36.5q-72 0 -128.5 34zM426 303q-2 30 -17 60t-48.5 51
t-84.5 21q-57 0 -98 -36t-52 -96h300zM159 627.5q-16 16.5 -16 37.5q0 23 16 38.5t38 15.5q23 0 38 -15.5t15 -38.5q0 -22 -15 -38t-38 -16q-22 0 -38 16.5zM323.5 627.5q-16.5 16.5 -16.5 37.5q0 23 16 38.5t38 15.5q23 0 38.5 -15.5t15.5 -38.5q0 -22 -15.5 -38t-38.5 -16
q-21 0 -37.5 16.5z" />
    <glyph glyph-name="i" horiz-adv-x="224" 
d="M69 618q-18 18 -18 43t18 43t43 18t43 -18t18 -43t-17.5 -43t-43.5 -18q-25 0 -43 18zM70 496h85v-496h-85v496z" />
    <glyph glyph-name="j" horiz-adv-x="224" 
d="M69 618q-18 18 -18 43t18 43t43 18t43 -18t18 -43t-17.5 -43t-43.5 -18q-25 0 -43 18zM-30 -220v81q22 -10 41 -10q31 0 45 19.5t14 57.5v568h84v-568q0 -77 -37 -115.5t-103 -38.5q-24 0 -44 6z" />
    <glyph glyph-name="o" horiz-adv-x="577" 
d="M157 18.5q-58 34.5 -90.5 95t-32.5 134.5t32.5 134.5t90.5 95t131 34.5t131.5 -34.5t91 -95t32.5 -134.5t-32.5 -134.5t-91 -95t-131.5 -34.5t-131 34.5zM372 84q39 23 62.5 65.5t23.5 98.5t-23.5 98.5t-62.5 65.5t-84 23q-44 0 -83 -23t-62.5 -65.5t-23.5 -98.5
t23.5 -98.5t62.5 -65.5t83 -23q45 0 84 23z" />
    <glyph glyph-name="p" horiz-adv-x="586" 
d="M58 496h81v-73h4q24 38 69 63.5t104 25.5q64 0 118 -34.5t86 -94.5t32 -135t-32 -135t-86 -94.5t-118 -34.5q-59 0 -104.5 25.5t-68.5 64.5h-4l4 -69v-221h-85v712zM384.5 84q37.5 23 60 65.5t22.5 98.5t-22.5 98.5t-60 65.5t-81.5 23t-81.5 -22.5t-60 -65t-22.5 -99.5
q0 -56 22.5 -99t60 -65.5t81.5 -22.5t81.5 23z" />
    <glyph glyph-name="s" horiz-adv-x="463" 
d="M103 24q-55 40 -77 99l76 33q19 -47 55.5 -72t79.5 -25q48 0 79.5 21t31.5 51q0 29 -23.5 48t-80.5 33l-68 17q-56 13 -95.5 47t-39.5 90q0 46 26.5 79t70.5 50t96 17q64 0 116.5 -29.5t74.5 -83.5l-75 -32q-16 36 -48.5 53t-72.5 17q-39 0 -70.5 -19t-31.5 -49
q0 -26 20.5 -41t65.5 -27l74 -18q74 -19 110.5 -56.5t36.5 -89.5q0 -43 -25 -78t-70 -55t-102 -20q-79 0 -134 40z" />
    <glyph glyph-name="x" horiz-adv-x="476" 
d="M188 252l-172 244h96l127 -181l122 181h99l-173 -244l178 -252h-100l-128 190l-126 -190h-99z" />
    <glyph glyph-name="y" horiz-adv-x="503" 
d="M213 32l-206 464h92l154 -365h2l149 365h92l-310 -712h-87z" />
    <glyph glyph-name="kappa" horiz-adv-x="480" 
d="M62 496h85v-224h4l209 224h108v-4l-224 -231l234 -257v-4h-105l-222 250h-4v-250h-85v496z" />
    <glyph glyph-name="tau" horiz-adv-x="460" 
d="M188 419h-161v77h406v-77h-161v-419h-84v419z" />
    <glyph glyph-name="three.cap" horiz-adv-x="552" 
d="M179 2.5q-47 18.5 -85 59t-54 102.5l79 32q16 -60 57.5 -95.5t94.5 -35.5q40 0 74.5 18t55 49t20.5 70q0 37 -21 67.5t-56 48t-76 17.5h-61v80h54q58 0 97 33t39 87q0 51 -38 83.5t-93 32.5q-50 0 -84 -30.5t-47 -70.5l-78 33q19 57 72.5 103t136.5 46q62 0 111.5 -25.5
t77.5 -70.5t28 -100q0 -59 -27.5 -96.5t-70.5 -58.5v-4q54 -22 88 -66.5t34 -108.5q0 -63 -31.5 -112.5t-85.5 -77.5t-119 -28q-45 0 -92 18.5z" />
    <glyph glyph-name="space.tf" horiz-adv-x="325" 
d="M0 0z" />
    <glyph glyph-name="uni0308" 
d="M-316 627.5q-16 16.5 -16 37.5q0 23 16 38.5t38 15.5q23 0 38 -15.5t15 -38.5q0 -22 -15 -38t-38 -16q-22 0 -38 16.5zM-151.5 627.5q-16.5 16.5 -16.5 37.5q0 23 16 38.5t38 15.5q23 0 38.5 -15.5t15.5 -38.5q0 -22 -15.5 -38t-38.5 -16q-21 0 -37.5 16.5z" />
    <glyph glyph-name="gravecomb" 
d="M-299 722h93l52 -127h-75z" />
    <glyph glyph-name="acutecomb" 
d="M-190 722h93l-71 -127h-74z" />
    <glyph glyph-name="acute" horiz-adv-x="397" 
d="M207 716h93l-71 -127h-74z" />
    <glyph glyph-name="breve" horiz-adv-x="399" 
d="M138.5 604.5q-29.5 16.5 -47.5 45t-18 62.5h69q0 -25 16 -42.5t43 -17.5q25 0 41 17.5t16 42.5h68q0 -34 -17.5 -62.5t-46.5 -45t-61 -16.5q-33 0 -62.5 16.5z" />
    <glyph glyph-name="dieresis" horiz-adv-x="392" 
d="M76 621.5q-16 16.5 -16 37.5q0 23 16 38.5t38 15.5q23 0 38 -15.5t15 -38.5q0 -22 -15 -38t-38 -16q-22 0 -38 16.5zM240.5 621.5q-16.5 16.5 -16.5 37.5q0 23 16 38.5t38 15.5q23 0 38.5 -15.5t15.5 -38.5q0 -22 -15.5 -38t-38.5 -16q-21 0 -37.5 16.5z" />
    <glyph glyph-name="grave" horiz-adv-x="397" 
d="M98 716h93l52 -127h-75z" />
    <glyph glyph-name="uni0308.cap" 
d="M-316 805.5q-16 16.5 -16 37.5q0 23 16 38.5t38 15.5q23 0 38 -15.5t15 -38.5q0 -22 -15 -38t-38 -16q-22 0 -38 16.5zM-151.5 805.5q-16.5 16.5 -16.5 37.5q0 23 16 38.5t38 15.5q23 0 38.5 -15.5t15.5 -38.5q0 -22 -15.5 -38t-38.5 -16q-21 0 -37.5 16.5z" />
    <glyph glyph-name="gravecomb.cap" 
d="M-299 900h93l52 -127h-75z" />
    <glyph glyph-name="acutecomb.cap" 
d="M-190 900h93l-71 -127h-74z" />
    <glyph glyph-name="brevecombcy" 
d="M-260.5 610.5q-29.5 16.5 -47.5 45t-18 62.5h69q0 -24 16 -42t43 -18q25 0 41 18t16 42h68q0 -34 -17.5 -62.5t-46.5 -45t-61 -16.5q-33 0 -62.5 16.5z" />
    <glyph glyph-name="brevecombcy.cap" 
d="M-258.5 788.5q-29.5 16.5 -47.5 45t-18 62.5h69q0 -25 16 -42.5t43 -17.5q25 0 41 17.5t16 42.5h68q0 -34 -17.5 -62.5t-46.5 -45t-61 -16.5q-33 0 -62.5 16.5z" />
    </font>
</defs>
</svg>
